<svg id="SvgjsSvg1001" width="288" height="288" xmlns="http://www.w3.org/2000/svg" version="1.1" xmlns:xlink="http://www.w3.org/1999/xlink" xmlns:svgjs="http://svgjs.com/svgjs"><defs id="SvgjsDefs1002"></defs><g id="SvgjsG1008" transform="matrix(1,0,0,1,0,0)"><svg xmlns="http://www.w3.org/2000/svg" xmlns:svgjs="http://svgjs.com/svgjs" xmlns:xlink="http://www.w3.org/1999/xlink" width="288" height="288"><svg xmlns="http://www.w3.org/2000/svg" width="288" height="288" viewBox="0 0 24 24"><path fill="#808080" d="M17,0H7A5.006,5.006,0,0,0,2,5V20a4,4,0,0,0,4,4H17a5.006,5.006,0,0,0,5-5V5A5.006,5.006,0,0,0,17,0Zm3,5V16H8V2h9A3,3,0,0,1,20,5ZM6,2.172V16a3.98,3.98,0,0,0-2,.537V5A3,3,0,0,1,6,2.172ZM17,22H6a2,2,0,0,1,0-4H20v1A3,3,0,0,1,17,22Z" class="color000 svgShape colorfe646f"></path></svg></svg></g></svg>