<svg id="SvgjsSvg1038" width="288" height="288" xmlns="http://www.w3.org/2000/svg" version="1.1" xmlns:xlink="http://www.w3.org/1999/xlink" xmlns:svgjs="http://svgjs.com/svgjs"><defs id="SvgjsDefs1039"></defs><g id="SvgjsG1040"><svg xmlns="http://www.w3.org/2000/svg" width="288" height="288" data-name="Layer 1" viewBox="0 0 24 24"><path d="m19 20h-14a5.006 5.006 0 0 1 -5-5v-6a5.006 5.006 0 0 1 5-5h14a5.006 5.006 0 0 1 5 5v6a5.006 5.006 0 0 1 -5 5zm-14-14a3 3 0 0 0 -3 3v6a3 3 0 0 0 3 3h14a3 3 0 0 0 3-3v-6a3 3 0 0 0 -3-3zm7 10a4 4 0 1 1 4-4 4 4 0 0 1 -4 4zm0-6a2 2 0 1 0 2 2 2 2 0 0 0 -2-2zm-7-2a1 1 0 1 0 1 1 1 1 0 0 0 -1-1zm13 1a1 1 0 1 0 1-1 1 1 0 0 0 -1 1zm-13 5a1 1 0 1 0 1 1 1 1 0 0 0 -1-1zm13 1a1 1 0 1 0 1-1 1 1 0 0 0 -1 1z" fill="#fe646f" class="color000 svgShape"></path></svg></g></svg>